<svg xmlns="http://www.w3.org/2000/svg" width="518" height="83" fill="none" viewBox="0 0 518 83">
  <path fill="#3C3F42" d="M290.522 22.247c-.76-6.58-3.44-13.38-11.27-17.83-3.08-1.75-6.65-2.88-10.59-3.46-6.73-1-14.42-.54-21.3-.51-5.46.02-11-.09-16.45.1-1.2.8-1.96 1.56-2.02 2.73-.05.98.41 1.97.97 2.87 1.13 1.83 14.23 17.68 15.44 18.47.64.42.99.44 1.85.55.65-.27.82-.31 1.02-.84.85-2.2-.81-5.61 2.59-7.1 2.61-1.14 10.42-1.13 13.39-.63 2.57.43 4.56 1.42 5.92 2.93 3.11 3.46 2.84 8.68 1.27 12.45-1.08 2.6-3.09 5.13-6.79 6.44-4.94 1.75-12.83 1.17-18.25 1.2-.08-.05-.16-.1-.23-.15-4.59-3.11-12.11-16.39-15.75-17.98-.85.01-1.16.07-1.84.41-3.71 24.4-6.43 42.43-7.92 50.35-.3 1.61-1.11 5.87 1.17 8.2 1.56 1.6 3.93 1.64 7.18 1.68 3.13.05 5.68.08 7.52-1.46 1.85-1.55 1.75-3.67 2.37-9.25 1.02-9.19 1.61-13.77 4.19-15.42 1.25-.8 1.91-.36 7.6-.33 4.26.02 8.13-.24 10.33-.42 6.49-.53 12.92-2.02 18.19-6.04 9.33-7.11 12.47-17.77 11.41-26.96Zm45.48-1.58c-4.33-1.54-8.78-1.78-13.6-1.73-7.1.46-13.88 2.22-18.55 5.97-3.35 2.7-8.45 9.88-7.54 13.4.09.35.26.74.73.93 2.32.92 9.94.86 12.5.28 4.05-.92 2.2-6.42 11.57-7.06 1.82-.13 3.83-.07 5.54.41 2.27.63 3.74 1.86 4.56 3.37 1.38 2.54 1.04 5.35.71 7.99-11.46.38-26.57-.36-34.92 5.87-6.37 4.75-8.18 12.61-7.54 18.75.21 1.98.74 3.9 1.52 5.81 2.11 3.22 5.02 5.97 10.14 7.3 4.72 1.22 10.38.92 14.93-.46 4.71-1.43 8.57-3.81 11.78-6.48-.3 1.77-1.25 4.36-.02 5.98 1.16 1.52 7.11.67 8.73.55 3.87-.3 5.89-1.1 6.69-4.94 1.18-5.7 1.71-11.5 2.65-17.23 1.1-6.72 2.76-13.61 2.95-20.37.08-2.91-.28-5.82-1.55-8.62-1.87-4.11-5.5-7.66-11.28-9.72Zm-7.57 40.23c-1.76 3.56-5.12 6.2-10.16 7.91-2.73.56-5.71 1-8.42.11-1.87-.62-3.02-1.76-3.56-3.08-.9-2.2-.13-4.84 1.7-6.74 2.19-2.28 5.25-3.12 9.04-3.63 4.27-.14 8.61-.09 12.88.01-.3 1.85-.6 3.64-1.48 5.42Zm132.3-36.56c-3.38-2.88-8.72-4.89-14.2-5.26-1.6-.11-3.28-.16-4.89-.13-7.68.24-13.89 1.86-19.11 5.73-4.4 3.26-8.24 8.88-7.81 13.35.05.55.29.88.83 1.29 3.37 1.04 8.92.5 12.6.34 2.6-2.79 4.01-6.05 9.37-6.96 2.72-.46 6.12-.39 8.53.66 2.29 1.01 3.45 2.7 3.91 4.45.55 2.08.26 4.28.11 6.37-11.29.42-26.52-.24-34.69 5.91-6.38 4.8-8.23 12.55-7.56 18.75.21 1.92.76 3.78 1.48 5.64 1.9 3.12 4.5 5.85 9.34 7.26 4.65 1.36 10.48 1.31 15.15.01 5.08-1.41 9.37-4.09 12.45-7.08-.41 1.54-1.56 4.73-.37 6.15.34.4 1.34.55 1.97.62 2.96.33 9.09.5 11.55-.71 1.55-.76 1.85-3.43 2.07-4.66 1.17-6.54 1.97-13.12 3-19.67 1.12-7.08 3.32-14.77 2.07-21.86-.6-3.6-2.41-7.32-5.8-10.2Zm-14.32 36.79c-1.76 3.45-5.24 6.2-10.15 7.8l-.13.03c-2.73.52-5.74.86-8.33-.15-1.83-.72-2.9-1.95-3.35-3.31-.74-2.16-.02-4.6 1.79-6.45 2.32-2.37 5.37-3.09 9.32-3.59 4.08-.12 8.19-.05 12.27-.04-.09 1.95-.48 3.87-1.42 5.71Zm-40.04-40c-1.56-1.12-30.66-.62-34.79-.6-3.14-.04-8.61-.56-11.07.96-2.18 1.35-2.08 4.39-2.16 6.27v.22c-.4 1.75-1.41 4.61.15 6.15.65.65 1.27.85 2.41.96 6.33.6 16.53-.01 23.52.19l-21.42 21.77c-3.14 3.2-8.52 7.82-10.49 11.24-1.32 2.28-2.18 8.76-1.38 11.12.22.65.51 1.13 1.27 1.58 1.12.29 2.07.38 3.26.42 3.69.11 7.49-.08 11.19-.07 6.02.01 26.71.64 31.42-.37 3.02-1.71 2.86-6.25 3.15-8.75.14-1.14.33-2.23-.24-3.33-.21-.76-.58-1.09-1.33-1.66-4.59-.68-19.84-.19-25.45-.18 6.92-7.27 13.93-14.51 21.02-21.7 3.4-3.48 8.02-7.31 10.46-11.11 1.07-1.67 1.15-3.94 1.42-5.73.32-2.02 1.3-5.77-.94-7.38Zm109.86-.92c-.9-.62-2.22-.77-3.37-.73-7.13.24-14.06 3.93-18.24 9.7.31-1.88.45-3.78.4-5.68-.01-.54-.05-1.1-.35-1.55-.43-.65-1.27-.86-2.04-.99-3.8-.65-7.72-.59-11.5.18-.69.14-1.43.33-1.89.86-.42.48-.53 1.15-.62 1.78l-7.29 49.97c-.53 3.64-1.45 7.02 3.11 7.6 2.84.36 5.71.51 8.58.45 1.82-.04 3.87-.29 4.96-1.74.65-.86.82-1.98.96-3.04 1-7.17 1.99-14.35 2.99-21.52.43-3.07.86-6.16 1.87-9.09 1.01-2.93 2.65-5.72 5.11-7.6 3.52-2.7 8.22-3.22 12.65-3.29 1.45-.02 3.14-.13 3.96-1.31.33-.47.46-1.05.58-1.62.64-3.06 1.05-6.16 1.21-9.28.04-.71.06-1.46-.24-2.11-.18-.42-.48-.75-.84-.99Z"/>
  <path fill="#2D77ED" d="M76.952 3.497h-10.33c-1.68 0-3.29 1.35-3.58 3-1.39 7.83-2.77 15.66-4.16 23.49-.15.82-.86 1.42-1.7 1.41-9.77-.09-19.54-.17-29.31-.26a1.707 1.707 0 0 1-1.67-1.97c1.15-7.39 2.31-14.77 3.46-22.16a3.04 3.04 0 0 0-3.01-3.51h-11.85a3.32 3.32 0 0 0-3.28 2.79c-3.83 23.69-7.66 47.38-11.49 71.08-.24 1.5.91 2.86 2.43 2.86h.83c5.86.16 10.27.13 12.15.04.83-.04 1.79-.23 2.4-.84.87-.87 1.09-2.17 1.22-3.34.16-1.46.39-2.9.62-4.35.54-3.46 1.09-6.92 1.63-10.38.54-3.46 1.09-6.92 1.63-10.38.14-.9.28-1.8.43-2.7.05-.3.3-.52.6-.52l30.28-.02c1.04 0 1.84.92 1.69 1.95-1.26 8.98-2.52 17.97-3.79 26.95a3.14 3.14 0 0 0 3.11 3.58h10.49c1.74 0 3.21-1.27 3.48-2.99 3.55-23.44 7.1-46.87 10.66-70.31.29-1.79-1.11-3.42-2.94-3.42Zm86.48 17.31c-2.04-.69-40.58-.36-44.96.31-1.3.2-1.8 1.72-2.07 2.81-.67 2.71-2.74 8.18-.09 10.4.76.64 1.63.81 2.78.87 7.71.38 15.65-.01 23.39.1-6.52 6.14-12.4 12.67-18.58 18.98-4.06 4.15-10.11 9.42-13.01 13.77-.99 1.49-1.29 3.24-1.56 4.97-.23 1.48-.4 2.98-.51 4.47-.09 1.23-.11 2.43.92 3.3.66.56 2.14.58 3.15.64 5.98.35 12.02.24 18.01.27 7.37.03 14.75.08 22.12-.2 1.3-.05 2.81.06 4-.58 1.42-.76 1.73-2.71 2.01-4.13.27-1.36.62-2.71.75-4.1.24-2.69-.52-5.36-3.63-5.57-2.21-.15-4.6.01-6.83-.01-5.09-.03-10.14-.05-15.22.15-.77.03-1.85-.03-1.09-.94.31-.37.7-.64 1.03-.99l1.81-1.9c1.21-1.27 2.41-2.54 3.62-3.8 2.41-2.54 4.82-5.07 7.23-7.61 3.04-3.04 5.94-6.25 8.91-9.37 4.4-4.63 14.31-12.85 9.68-20.09-.63-.94-1.34-1.57-1.86-1.75Zm25.77-20.59c-2.18-.24-4.58-.13-5.78-.2-2.22-.12-4.7.37-6 2.17-.79 1.09-1.01 2.47-1.21 3.8l-10.41 69.73c-.25 1.69-.4 3.7.89 4.83 2.41 2.1 7.92.83 10.86.83 1.46 0 3.08-.07 4.12-1.09.87-.85 1.09-2.14 1.28-3.34 3.61-23.66 7.21-47.32 10.82-70.98.19-1.24.37-2.57-.13-3.72-.55-1.27-2.4-1.8-4.44-2.03Zm-81.83 22.17c-1.08-1.74-3.55-1.94-7.15-2.23-3.47-.28-5.87-.44-7.32 1.18-.8.89-.98 1.94-1.04 2.35-.29 1.75-5.7 34.19-7.61 43.78-1.11 5.58-2.49 10.96.07 13.1 1.06.89 3.06.89 6.98 1.01 3.04.09 4.56.13 5.45-.29 2.85-1.38 3.38-5.48 4.47-13.41 1.05-7.69 1.57-11.54 1.81-13.06 2.8-17.93 4.2-26.9 4.63-28.69.15-.7.56-2.37-.29-3.74Zm111.98-.38c-1.14-1.85-3.63-2.07-7.49-2.36-3.55-.26-5.39-.37-6.98.93-1.07.87-1.58 2.01-1.84 2.81-.53 3.08-1.3 7.67-2.14 13.29-.51 3.42-.62 4.39-1.17 8.08-1.79 12.08-2.62 18.13-3.07 20.73-1.62 9.3-2.63 12.58-.53 14.58 1.26 1.19 3.17 1.41 6.98 1.85 2.81.32 4.91.53 6.56-.67 1.68-1.23 2.1-3.33 2.27-4.29.89-4.9 4-24.99 7.97-52.46.04-.68-.03-1.62-.56-2.49Z"/>
</svg>
