<?xml version="1.0" encoding="utf-8"?>
<!-- Generator: Adobe Illustrator 24.3.0, SVG Export Plug-In . SVG Version: 6.00 Build 0)  -->
<svg version="1.1" id="Layer_1" xmlns="http://www.w3.org/2000/svg" xmlns:xlink="http://www.w3.org/1999/xlink" x="0px" y="0px"
	 viewBox="0 0 700 700" style="enable-background:new 0 0 700 700;" xml:space="preserve">
<style type="text/css">
	.st0{fill:#3C3F42;}
	.st1{fill:#2D77ED;}
</style>
<g>
	<g>
		<path class="st0" d="M381.84,330.88c-0.76-6.58-3.44-13.38-11.27-17.83c-3.08-1.75-6.65-2.88-10.59-3.46
			c-6.73-1-14.42-0.54-21.3-0.51c-5.46,0.02-11-0.09-16.45,0.1c-1.2,0.8-1.96,1.56-2.02,2.73c-0.05,0.98,0.41,1.97,0.97,2.87
			c1.13,1.83,14.23,17.68,15.44,18.47c0.64,0.42,0.99,0.44,1.85,0.55c0.65-0.27,0.82-0.31,1.02-0.84c0.85-2.2-0.81-5.61,2.59-7.1
			c2.61-1.14,10.42-1.13,13.39-0.63c2.57,0.43,4.56,1.42,5.92,2.93c3.11,3.46,2.84,8.68,1.27,12.45c-1.08,2.6-3.09,5.13-6.79,6.44
			c-4.94,1.75-12.83,1.17-18.25,1.2c-0.08-0.05-0.16-0.1-0.23-0.15c-4.59-3.11-12.11-16.39-15.75-17.98
			c-0.85,0.01-1.16,0.07-1.84,0.41c-3.71,24.4-6.43,42.43-7.92,50.35c-0.3,1.61-1.11,5.87,1.17,8.2c1.56,1.6,3.93,1.64,7.18,1.68
			c3.13,0.05,5.68,0.08,7.52-1.46c1.85-1.55,1.75-3.67,2.37-9.25c1.02-9.19,1.61-13.77,4.19-15.42c1.25-0.8,1.91-0.36,7.6-0.33
			c4.26,0.02,8.13-0.24,10.33-0.42c6.49-0.53,12.92-2.02,18.19-6.04C379.76,350.73,382.9,340.07,381.84,330.88z"/>
		<path class="st0" d="M427.32,329.3c-4.33-1.54-8.78-1.78-13.6-1.73c-7.1,0.46-13.88,2.22-18.55,5.97
			c-3.35,2.7-8.45,9.88-7.54,13.4c0.09,0.35,0.26,0.74,0.73,0.93c2.32,0.92,9.94,0.86,12.5,0.28c4.05-0.92,2.2-6.42,11.57-7.06
			c1.82-0.13,3.83-0.07,5.54,0.41c2.27,0.63,3.74,1.86,4.56,3.37c1.38,2.54,1.04,5.35,0.71,7.99c-11.46,0.38-26.57-0.36-34.92,5.87
			c-6.37,4.75-8.18,12.61-7.54,18.75c0.21,1.98,0.74,3.9,1.52,5.81c2.11,3.22,5.02,5.97,10.14,7.3c4.72,1.22,10.38,0.92,14.93-0.46
			c4.71-1.43,8.57-3.81,11.78-6.48c-0.3,1.77-1.25,4.36-0.02,5.98c1.16,1.52,7.11,0.67,8.73,0.55c3.87-0.3,5.89-1.1,6.69-4.94
			c1.18-5.7,1.71-11.5,2.65-17.23c1.1-6.72,2.76-13.61,2.95-20.37c0.08-2.91-0.28-5.82-1.55-8.62
			C436.73,334.91,433.1,331.36,427.32,329.3z M419.75,369.53c-1.76,3.56-5.12,6.2-10.16,7.91c-2.73,0.56-5.71,1-8.42,0.11
			c-1.87-0.62-3.02-1.76-3.56-3.08c-0.9-2.2-0.13-4.84,1.7-6.74c2.19-2.28,5.25-3.12,9.04-3.63c4.27-0.14,8.61-0.09,12.88,0.01
			C420.93,365.96,420.63,367.75,419.75,369.53z"/>
		<path class="st0" d="M552.05,332.97c-3.38-2.88-8.72-4.89-14.2-5.26c-1.6-0.11-3.28-0.16-4.89-0.13
			c-7.68,0.24-13.89,1.86-19.11,5.73c-4.4,3.26-8.24,8.88-7.81,13.35c0.05,0.55,0.29,0.88,0.83,1.29c3.37,1.04,8.92,0.5,12.6,0.34
			c2.6-2.79,4.01-6.05,9.37-6.96c2.72-0.46,6.12-0.39,8.53,0.66c2.29,1.01,3.45,2.7,3.91,4.45c0.55,2.08,0.26,4.28,0.11,6.37
			c-11.29,0.42-26.52-0.24-34.69,5.91c-6.38,4.8-8.23,12.55-7.56,18.75c0.21,1.92,0.76,3.78,1.48,5.64c1.9,3.12,4.5,5.85,9.34,7.26
			c4.65,1.36,10.48,1.31,15.15,0.01c5.08-1.41,9.37-4.09,12.45-7.08c-0.41,1.54-1.56,4.73-0.37,6.15c0.34,0.4,1.34,0.55,1.97,0.62
			c2.96,0.33,9.09,0.5,11.55-0.71c1.55-0.76,1.85-3.43,2.07-4.66c1.17-6.54,1.97-13.12,3-19.67c1.12-7.08,3.32-14.77,2.07-21.86
			C557.25,339.57,555.44,335.85,552.05,332.97z M537.73,369.76c-1.76,3.45-5.24,6.2-10.15,7.8l-0.13,0.03
			c-2.73,0.52-5.74,0.86-8.33-0.15c-1.83-0.72-2.9-1.95-3.35-3.31c-0.74-2.16-0.02-4.6,1.79-6.45c2.32-2.37,5.37-3.09,9.32-3.59
			c4.08-0.12,8.19-0.05,12.27-0.04C539.06,366,538.67,367.92,537.73,369.76z"/>
		<path class="st0" d="M497.69,329.76c-1.56-1.12-30.66-0.62-34.79-0.6c-3.14-0.04-8.61-0.56-11.07,0.96
			c-2.18,1.35-2.08,4.39-2.16,6.27c0,0.07,0,0.15,0,0.22c-0.4,1.75-1.41,4.61,0.15,6.15c0.65,0.65,1.27,0.85,2.41,0.96
			c6.33,0.6,16.53-0.01,23.52,0.19l-21.42,21.77c-3.14,3.2-8.52,7.82-10.49,11.24c-1.32,2.28-2.18,8.76-1.38,11.12
			c0.22,0.65,0.51,1.13,1.27,1.58c1.12,0.29,2.07,0.38,3.26,0.42c3.69,0.11,7.49-0.08,11.19-0.07c6.02,0.01,26.71,0.64,31.42-0.37
			c3.02-1.71,2.86-6.25,3.15-8.75c0.14-1.14,0.33-2.23-0.24-3.33c-0.21-0.76-0.58-1.09-1.33-1.66c-4.59-0.68-19.84-0.19-25.45-0.18
			c6.92-7.27,13.93-14.51,21.02-21.7c3.4-3.48,8.02-7.31,10.46-11.11c1.07-1.67,1.15-3.94,1.42-5.73
			C498.95,335.12,499.93,331.37,497.69,329.76z"/>
		<path class="st0" d="M607.55,328.84c-0.9-0.62-2.22-0.77-3.37-0.73c-7.13,0.24-14.06,3.93-18.24,9.7c0.31-1.88,0.45-3.78,0.4-5.68
			c-0.01-0.54-0.05-1.1-0.35-1.55c-0.43-0.65-1.27-0.86-2.04-0.99c-3.8-0.65-7.72-0.59-11.5,0.18c-0.69,0.14-1.43,0.33-1.89,0.86
			c-0.42,0.48-0.53,1.15-0.62,1.78c-2.43,16.66-4.86,33.31-7.29,49.97c-0.53,3.64-1.45,7.02,3.11,7.6c2.84,0.36,5.71,0.51,8.58,0.45
			c1.82-0.04,3.87-0.29,4.96-1.74c0.65-0.86,0.82-1.98,0.96-3.04c1-7.17,1.99-14.35,2.99-21.52c0.43-3.07,0.86-6.16,1.87-9.09
			c1.01-2.93,2.65-5.72,5.11-7.6c3.52-2.7,8.22-3.22,12.65-3.29c1.45-0.02,3.14-0.13,3.96-1.31c0.33-0.47,0.46-1.05,0.58-1.62
			c0.64-3.06,1.05-6.16,1.21-9.28c0.04-0.71,0.06-1.46-0.24-2.11C608.21,329.41,607.91,329.08,607.55,328.84z"/>
	</g>
	<path class="st1" d="M168.27,312.13h-10.33c-1.68,0-3.29,1.35-3.58,3c-1.39,7.83-2.77,15.66-4.16,23.49
		c-0.15,0.82-0.86,1.42-1.7,1.41c-9.77-0.09-19.54-0.17-29.31-0.26c-1.04-0.01-1.83-0.94-1.67-1.97c1.15-7.39,2.31-14.77,3.46-22.16
		c0.29-1.85-1.14-3.51-3.01-3.51h-11.85c-1.63,0-3.02,1.18-3.28,2.79c-3.83,23.69-7.66,47.38-11.49,71.08
		c-0.24,1.5,0.91,2.86,2.43,2.86h0.83c5.86,0.16,10.27,0.13,12.15,0.04c0.83-0.04,1.79-0.23,2.4-0.84c0.87-0.87,1.09-2.17,1.22-3.34
		c0.16-1.46,0.39-2.9,0.62-4.35c0.54-3.46,1.09-6.92,1.63-10.38s1.09-6.92,1.63-10.38c0.14-0.9,0.28-1.8,0.43-2.7
		c0.05-0.3,0.3-0.52,0.6-0.52l30.28-0.02c1.04,0,1.84,0.92,1.69,1.95c-1.26,8.98-2.52,17.97-3.79,26.95
		c-0.27,1.89,1.2,3.58,3.11,3.58h10.49c1.74,0,3.21-1.27,3.48-2.99c3.55-23.44,7.1-46.87,10.66-70.31
		C171.5,313.76,170.1,312.13,168.27,312.13z"/>
	<path class="st1" d="M254.75,329.44c-2.04-0.69-40.58-0.36-44.96,0.31c-1.3,0.2-1.8,1.72-2.07,2.81c-0.67,2.71-2.74,8.18-0.09,10.4
		c0.76,0.64,1.63,0.81,2.78,0.87c7.71,0.38,15.65-0.01,23.39,0.1c-6.52,6.14-12.4,12.67-18.58,18.98
		c-4.06,4.15-10.11,9.42-13.01,13.77c-0.99,1.49-1.29,3.24-1.56,4.97c-0.23,1.48-0.4,2.98-0.51,4.47c-0.09,1.23-0.11,2.43,0.92,3.3
		c0.66,0.56,2.14,0.58,3.15,0.64c5.98,0.35,12.02,0.24,18.01,0.27c7.37,0.03,14.75,0.08,22.12-0.2c1.3-0.05,2.81,0.06,4-0.58
		c1.42-0.76,1.73-2.71,2.01-4.13c0.27-1.36,0.62-2.71,0.75-4.1c0.24-2.69-0.52-5.36-3.63-5.57c-2.21-0.15-4.6,0.01-6.83-0.01
		c-5.09-0.03-10.14-0.05-15.22,0.15c-0.77,0.03-1.85-0.03-1.09-0.94c0.31-0.37,0.7-0.64,1.03-0.99c0.6-0.63,1.21-1.27,1.81-1.9
		c1.21-1.27,2.41-2.54,3.62-3.8c2.41-2.54,4.82-5.07,7.23-7.61c3.04-3.04,5.94-6.25,8.91-9.37c4.4-4.63,14.31-12.85,9.68-20.09
		C255.98,330.25,255.27,329.62,254.75,329.44z"/>
	<path class="st1" d="M280.52,308.85c-2.18-0.24-4.58-0.13-5.78-0.2c-2.22-0.12-4.7,0.37-6,2.17c-0.79,1.09-1.01,2.47-1.21,3.8
		c-3.47,23.24-6.94,46.49-10.41,69.73c-0.25,1.69-0.4,3.7,0.89,4.83c2.41,2.1,7.92,0.83,10.86,0.83c1.46,0,3.08-0.07,4.12-1.09
		c0.87-0.85,1.09-2.14,1.28-3.34c3.61-23.66,7.21-47.32,10.82-70.98c0.19-1.24,0.37-2.57-0.13-3.72
		C284.41,309.61,282.56,309.08,280.52,308.85z"/>
	<path class="st1" d="M198.69,331.02c-1.08-1.74-3.55-1.94-7.15-2.23c-3.47-0.28-5.87-0.44-7.32,1.18c-0.8,0.89-0.98,1.94-1.04,2.35
		c-0.29,1.75-5.7,34.19-7.61,43.78c-1.11,5.58-2.49,10.96,0.07,13.1c1.06,0.89,3.06,0.89,6.98,1.01c3.04,0.09,4.56,0.13,5.45-0.29
		c2.85-1.38,3.38-5.48,4.47-13.41c1.05-7.69,1.57-11.54,1.81-13.06c2.8-17.93,4.2-26.9,4.63-28.69
		C199.13,334.06,199.54,332.39,198.69,331.02z"/>
	<path class="st1" d="M310.67,330.64c-1.14-1.85-3.63-2.07-7.49-2.36c-3.55-0.26-5.39-0.37-6.98,0.93
		c-1.07,0.87-1.58,2.01-1.84,2.81c-0.53,3.08-1.3,7.67-2.14,13.29c-0.51,3.42-0.62,4.39-1.17,8.08
		c-1.79,12.08-2.62,18.13-3.07,20.73c-1.62,9.3-2.63,12.58-0.53,14.58c1.26,1.19,3.17,1.41,6.98,1.85c2.81,0.32,4.91,0.53,6.56-0.67
		c1.68-1.23,2.1-3.33,2.27-4.29c0.89-4.9,4-24.99,7.97-52.46C311.27,332.45,311.2,331.51,310.67,330.64z"/>
</g>
</svg>
